# xmcd
#
# Track frame offsets:
#  150
#  20878
#  39057
#  56346
#  73490
#  91256
#  110156
#  125310
#  143965
#  162091
#  179733
#  196031
#  213271
#  228513
#
# Disc length: 3272 seconds
#
# Revision: 0
# Processed by: cddbd v1.5.1PL2 Copyright (c) Steve Scherf et al.
# Submitted via: Collectorz.com_Music_Collector 6.9
#
DISCID=c70cc60e
DTITLE=Carrie Underwood - Some Hearts
DYEAR=2005
DGENRE=Country
TTITLE0=Wasted
TTITLE1=Don't Forget to Remember Me
TTITLE2=Some Hearts
TTITLE3=Jesus, Take the Wheel
TTITLE4=The Night Before (Life Goes On)
TTITLE5=Lessons Learned
TTITLE6=Before He Cheats
TTITLE7=Starts With Goodbye
TTITLE8=I Just Can't Live a Lie
TTITLE9=We're Young and Beautiful
TTITLE10=That's Where It Is
TTITLE11=Whenever You Remember
TTITLE12=I Ain't In Checotah Anymore
TTITLE13=Inside Your Heaven
EXTD=
EXTT0=
EXTT1=
EXTT2=
EXTT3=
EXTT4=
EXTT5=
EXTT6=
EXTT7=
EXTT8=
EXTT9=
EXTT10=
EXTT11=
EXTT12=
EXTT13=
PLAYORDER=
